<?xml version="1.0" standalone="no"?>
<!DOCTYPE svg PUBLIC "-//W3C//DTD SVG 20010904//EN"
 "http://www.w3.org/TR/2001/REC-SVG-20010904/DTD/svg10.dtd">
<svg version="1.0" xmlns="http://www.w3.org/2000/svg"
 width="1499.000000pt" height="1252.000000pt" viewBox="0 0 1499.000000 1252.000000"
 preserveAspectRatio="xMidYMid meet">

<g transform="translate(0.000000,1252.000000) scale(0.100000,-0.100000)"
fill="#000000" stroke="none">
<path d="M6778 7620 c-74 -22 -160 -103 -177 -167 -7 -22 -11 -148 -11 -305
l0 -268 35 0 35 0 0 259 c0 166 4 270 11 292 22 65 103 129 163 129 23 0 26 4
26 35 0 32 -3 35 -27 34 -16 0 -40 -4 -55 -9z"/>
<path d="M7662 7600 c3 -30 7 -34 48 -44 25 -7 62 -24 82 -39 63 -49 68 -74
68 -372 l0 -265 35 0 35 0 0 278 c0 247 -2 281 -19 317 -35 79 -118 140 -207
152 l-45 6 3 -33z"/>
<path d="M6573 6780 c9 -121 21 -169 72 -275 93 -195 278 -334 489 -367 l76
-12 0 -118 0 -118 -822 -2 -823 -3 -3 -517 -2 -518 -55 0 -55 0 0 515 0 515
-376 0 -376 0 -444 -442 -444 -442 0 -418 0 -418 278 0 278 0 -4 40 -4 40
-236 0 -235 0 6 368 6 367 418 412 418 412 318 0 317 1 0 -515 0 -515 134 0
c130 0 134 1 140 23 3 12 5 242 5 510 -1 268 0 489 2 491 8 7 696 16 1172 16
l487 0 0 159 0 159 63 7 c80 9 216 60 289 108 76 51 165 148 206 225 56 104
73 167 79 290 l6 112 -55 0 c-65 0 -68 -4 -68 -89 0 -213 -152 -415 -370 -491
-90 -31 -251 -38 -340 -15 -255 66 -429 285 -430 543 l0 52 -61 0 -62 0 6 -90z"/>
<path d="M6418 5712 l-208 -2 0 -155 0 -155 -155 0 -155 0 0 -210 0 -210 155
0 155 0 0 -155 0 -155 210 0 210 0 0 155 0 155 160 0 160 0 0 210 0 210 -160
0 -160 0 -2 158 -3 157 -207 -3z"/>
<path d="M4618 5467 c-25 -29 -134 -146 -242 -262 l-196 -210 178 -3 c97 -2
295 0 440 3 l262 7 0 259 0 259 -197 -1 -198 0 -47 -52z m356 -206 c0 -94 -2
-172 -5 -175 -2 -2 -136 -6 -296 -9 -243 -5 -293 -3 -293 8 0 7 3 15 8 17 4 2
67 68 141 148 73 80 143 154 155 165 19 18 34 20 156 18 l135 -2 -1 -170z"/>
<path d="M7230 5415 l0 -65 730 0 730 0 0 65 0 65 -730 0 -730 0 0 -65z"/>
<path d="M7230 4660 l0 -420 -315 0 -315 0 0 -40 0 -40 355 0 355 0 0 460 0
460 -40 0 -40 0 0 -420z"/>
<path d="M7787 4953 c-2 -16 -4 -44 -3 -63 l1 -35 728 -3 727 -2 0 65 0 65
-724 0 -723 0 -6 -27z"/>
<path d="M4623 4496 c-88 -28 -171 -113 -194 -200 -15 -56 -6 -153 19 -201 25
-50 84 -107 137 -133 136 -67 301 -12 372 127 28 53 33 74 33 130 0 193 -186
333 -367 277z m163 -155 c43 -26 68 -82 61 -140 -4 -37 -13 -52 -46 -83 -36
-34 -45 -38 -95 -38 -48 0 -60 4 -91 31 -19 17 -40 48 -46 70 -16 53 1 108 46
148 30 26 44 31 88 31 33 0 63 -7 83 -19z"/>
<path d="M4649 4281 c-36 -37 -38 -79 -5 -117 49 -58 146 -21 146 55 0 41 -5
51 -40 74 -36 25 -68 21 -101 -12z"/>
<path d="M6185 4497 c-108 -36 -173 -102 -200 -201 -50 -186 84 -361 276 -360
247 1 374 290 210 477 -65 74 -198 113 -286 84z"/>
<path d="M7460 4405 l0 -65 725 0 725 0 0 65 0 65 -725 0 -725 0 0 -65z"/>
<path d="M5050 4202 l0 -39 293 -6 c160 -4 356 -7 435 -7 154 0 148 -3 136 59
l-6 31 -429 0 -429 0 0 -38z"/>
<path d="M5481 3579 c0 -206 3 -338 10 -350 9 -18 24 -19 213 -19 l204 0 10
30 11 30 -192 2 -192 3 -3 318 -2 317 -29 0 -29 0 -1 -331z"/>
<path d="M8990 3560 l0 -350 30 0 30 0 0 350 0 350 -30 0 -30 0 0 -350z"/>
<path d="M6202 3705 c-106 -33 -156 -110 -156 -245 -1 -90 18 -144 65 -191 37
-37 108 -62 179 -63 55 -1 76 4 125 29 47 25 63 40 88 84 28 49 31 64 31 140
0 74 -4 93 -27 138 -14 28 -40 61 -56 72 -69 49 -163 63 -249 36z m187 -73
c70 -34 103 -127 81 -227 -15 -66 -32 -90 -80 -115 -91 -46 -225 -15 -263 62
-40 83 -28 206 27 257 53 50 160 61 235 23z"/>
<path d="M6842 3710 c-49 -11 -104 -59 -132 -116 -23 -45 -25 -61 -29 -216
l-3 -168 30 0 30 0 4 168 c4 151 6 170 26 203 24 39 52 57 103 68 29 6 34 11
37 39 4 35 -3 37 -66 22z"/>
<path d="M7178 3709 c-56 -16 -123 -80 -142 -136 -19 -55 -21 -159 -4 -214 16
-54 69 -113 120 -134 28 -12 69 -18 120 -18 65 0 84 4 122 27 51 30 54 36 27
60 -18 16 -21 16 -60 -5 -54 -28 -166 -24 -208 7 -36 27 -60 63 -68 101 l-7
33 214 2 213 3 3 44 c6 85 -45 174 -122 213 -48 24 -151 33 -208 17z m193 -81
c39 -22 63 -56 74 -105 l7 -33 -186 0 c-210 0 -204 -3 -165 77 41 86 171 115
270 61z"/>
<path d="M7793 3709 c-18 -5 -48 -25 -68 -44 -52 -53 -65 -110 -65 -297 l0
-158 30 0 30 0 0 163 c0 176 12 226 61 261 34 23 110 21 143 -5 46 -36 51 -54
56 -239 l5 -175 27 0 28 0 4 155 c5 177 14 218 57 254 37 31 111 36 148 10 49
-35 61 -85 61 -261 l0 -163 31 0 31 0 -4 178 c-3 162 -5 181 -27 225 -58 118
-203 140 -293 46 -35 -37 -38 -38 -48 -19 -31 59 -132 93 -207 69z"/>
<path d="M9425 3709 c-61 -15 -113 -57 -143 -113 -27 -51 -27 -52 -30 -312
l-4 -261 31 -11 31 -11 0 128 c0 70 3 131 7 134 3 4 16 -1 27 -12 23 -20 68
-36 133 -46 50 -8 141 16 183 47 95 70 116 271 40 376 -51 71 -173 107 -275
81z m142 -64 c88 -26 132 -105 119 -213 -13 -110 -58 -153 -170 -160 -60 -4
-79 -1 -114 17 -68 35 -101 122 -82 221 14 72 49 116 108 134 61 19 78 19 139
1z"/>
<path d="M9959 3710 c-114 -34 -147 -167 -59 -237 14 -12 42 -21 175 -58 43
-12 58 -22 65 -41 24 -62 -21 -104 -109 -104 -68 0 -101 14 -114 50 -9 23 -17
30 -39 30 -35 0 -37 -27 -8 -75 57 -92 247 -93 314 -2 15 20 21 43 20 79 -1
75 -40 107 -164 138 -97 24 -130 45 -130 83 0 56 66 92 145 80 54 -8 74 -20
85 -49 7 -18 17 -24 40 -24 16 0 30 2 30 5 0 18 -31 73 -51 92 -41 37 -136 53
-200 33z"/>
<path d="M11024 3709 c-38 -11 -79 -51 -107 -104 -18 -35 -22 -61 -25 -217
l-4 -178 30 0 30 0 4 168 c2 139 6 173 22 205 22 44 60 67 110 67 54 0 84 -19
108 -69 20 -40 23 -66 26 -208 l4 -163 29 0 29 0 0 153 c0 171 9 218 50 259
37 37 112 40 155 6 48 -37 58 -78 63 -255 l5 -163 23 0 24 0 0 173 c0 160 -2
176 -24 223 -26 56 -59 87 -113 105 -66 21 -160 -10 -197 -66 l-16 -25 -35 38
c-49 55 -117 73 -191 51z"/>
<path d="M10332 3542 c5 -153 7 -174 30 -224 29 -63 64 -92 132 -109 87 -22
175 22 217 108 22 44 24 64 27 221 l4 172 -31 0 -31 0 0 -135 c0 -169 -12
-229 -55 -272 -29 -29 -39 -33 -88 -33 -64 0 -95 20 -122 77 -14 29 -18 70
-21 192 -2 86 -4 159 -4 164 0 4 -14 7 -31 7 l-32 0 5 -168z"/>
<path d="M6032 2748 c81 -128 88 -144 88 -212 0 -37 4 -66 10 -66 6 0 10 29
10 68 0 63 3 72 50 150 33 54 44 82 35 82 -8 0 -31 -29 -52 -65 -21 -35 -40
-65 -43 -65 -3 0 -23 29 -44 65 -21 36 -45 65 -53 65 -13 0 -14 -3 -1 -22z"/>
<path d="M6413 2758 c-30 -15 -63 -85 -63 -135 0 -88 55 -153 130 -153 80 0
130 58 130 152 0 70 -19 112 -60 133 -33 17 -104 19 -137 3z m144 -43 c43 -49
42 -147 -2 -191 -37 -36 -107 -34 -146 5 -26 26 -29 36 -29 91 0 73 11 97 53
116 44 19 97 10 124 -21z"/>
<path d="M6730 2646 c0 -147 8 -165 81 -173 38 -4 50 -1 75 20 29 25 29 26 32
151 3 110 2 126 -12 126 -14 0 -16 -18 -16 -125 0 -139 -3 -145 -74 -145 -56
0 -66 24 -66 157 0 69 -4 113 -10 113 -6 0 -10 -48 -10 -124z"/>
<path d="M7044 2757 c-9 -24 1 -277 11 -277 11 0 12 3 14 65 l1 45 39 0 c37 0
42 -4 76 -55 38 -57 52 -71 62 -61 3 3 -11 31 -31 62 -30 44 -35 58 -24 65 7
5 16 9 19 9 4 0 12 13 19 30 16 39 5 95 -23 115 -28 19 -155 21 -163 2z m161
-41 c19 -29 11 -72 -16 -87 -11 -5 -43 -9 -71 -7 l-51 3 0 38 c2 83 -3 77 63
77 52 0 62 -3 75 -24z"/>
<path d="M7593 2758 c2 -7 15 -13 28 -14 13 0 29 -1 36 -2 9 -2 13 -40 15
-134 4 -175 21 -171 28 4 4 109 8 133 20 134 8 1 25 2 38 3 12 0 22 6 22 11 0
6 -39 10 -96 10 -72 0 -95 -3 -91 -12z"/>
<path d="M7958 2638 c-75 -175 -73 -168 -56 -168 8 0 21 18 28 40 l13 40 79 0
80 0 15 -40 c16 -39 33 -53 33 -27 0 21 -114 280 -125 284 -6 2 -36 -57 -67
-129z m122 -45 c0 -9 -18 -13 -60 -13 -67 0 -66 -8 -20 95 l23 50 28 -60 c15
-33 28 -66 29 -72z"/>
<path d="M8329 2755 c-54 -29 -76 -135 -45 -210 29 -68 118 -95 184 -55 30 19
32 23 32 80 0 33 -4 60 -10 60 -11 0 -13 -10 -10 -57 2 -46 -29 -73 -84 -73
-54 0 -91 33 -101 90 -18 109 57 186 145 150 36 -15 53 -4 26 16 -25 18 -103
17 -137 -1z"/>
<path d="M8642 2623 l3 -148 79 0 c55 0 81 4 84 13 3 9 -15 12 -67 12 l-71 0
0 135 c0 114 -2 135 -15 135 -13 0 -15 -21 -13 -147z"/>
<path d="M8950 2620 c0 -93 4 -150 10 -150 6 0 10 57 10 150 0 93 -4 150 -10
150 -6 0 -10 -57 -10 -150z"/>
<path d="M9120 2620 c0 -117 3 -151 13 -148 8 3 12 36 13 112 1 59 4 109 6
111 2 2 35 -47 73 -110 37 -63 72 -115 77 -115 4 0 8 68 8 150 0 180 -18 207
-22 33 l-3 -118 -70 114 c-38 63 -76 116 -82 119 -10 3 -13 -31 -13 -148z"/>
<path d="M9444 2757 c-2 -7 -3 -74 -2 -148 l3 -134 79 0 c55 0 81 4 84 13 3 9
-15 12 -67 12 l-71 0 0 59 0 60 52 3 c74 4 77 28 3 28 l-56 0 3 48 3 47 64 0
c42 0 66 4 68 13 7 18 -156 17 -163 -1z"/>
<path d="M9970 2620 c0 -93 4 -150 10 -150 6 0 10 32 10 75 l0 75 70 0 70 0 0
-76 c0 -49 4 -74 11 -72 6 2 10 7 10 11 -1 4 -1 70 -1 147 0 87 -4 140 -10
140 -6 0 -10 -27 -10 -60 l0 -60 -70 0 -70 0 0 60 c0 33 -4 60 -10 60 -6 0
-10 -57 -10 -150z"/>
<path d="M10290 2620 l0 -150 80 0 c64 0 80 3 80 15 0 12 -14 15 -70 15 l-70
0 0 59 0 60 52 3 c74 4 77 28 4 28 l-56 0 0 45 0 45 48 2 c26 1 56 2 66 2 11
1 21 7 24 14 3 9 -18 12 -77 12 l-81 0 0 -150z"/>
<path d="M10570 2620 c0 -93 4 -150 10 -150 6 0 10 27 10 60 l0 60 44 0 c43 0
45 -2 82 -60 22 -33 45 -60 52 -60 18 0 16 4 -24 65 l-37 55 26 20 c44 34 45
101 2 143 -12 13 -35 17 -91 17 l-74 0 0 -150z m158 108 c17 -17 15 -68 -5
-90 -12 -13 -31 -18 -75 -18 l-58 0 0 60 0 60 63 0 c36 0 68 -5 75 -12z"/>
<path d="M10892 2623 l3 -148 76 -3 c62 -2 78 0 82 13 5 13 -5 15 -63 15 l-70
0 0 59 0 60 52 3 c74 4 77 28 4 28 l-56 0 0 50 0 50 71 0 c44 0 68 4 64 10 -3
6 -42 10 -86 10 l-80 0 3 -147z"/>
</g>
</svg>
